<svg width="45" height="55" viewBox="0 0 45 55" fill="none" xmlns="http://www.w3.org/2000/svg">
<path d="M41.6302 5.47225H29.5658C29.0638 4.01463 28.1271 2.74589 26.8819 1.83699C25.6367 0.928085 24.1429 0.422695 22.6016 0.388916C21.0756 0.442049 19.6015 0.956186 18.3735 1.8636C17.1454 2.77102 16.2211 4.02914 15.7222 5.47225H3.86106C3.44609 5.41223 3.02312 5.4409 2.62005 5.55635C2.21698 5.67181 1.84297 5.87143 1.52272 6.14205C1.20246 6.41267 0.943237 6.74812 0.762148 7.12628C0.58106 7.50444 0.482225 7.9167 0.472168 8.33586V51.7475C0.474387 52.1258 0.551094 52.4999 0.697909 52.8486C0.844724 53.1972 1.05877 53.5135 1.32783 53.7794C1.59689 54.0454 1.91569 54.2557 2.26603 54.3984C2.61637 54.5411 2.99139 54.6134 3.36967 54.6111H41.6302C42.0085 54.6134 42.3835 54.5411 42.7339 54.3984C43.0842 54.2557 43.403 54.0454 43.6721 53.7794C43.9411 53.5135 44.1552 53.1972 44.302 52.8486C44.4488 52.4999 44.5255 52.1258 44.5277 51.7475V8.33586C44.5255 7.95758 44.4488 7.58344 44.302 7.2348C44.1552 6.88617 43.9411 6.56986 43.6721 6.30395C43.403 6.03804 43.0842 5.82772 42.7339 5.68502C42.3835 5.54232 42.0085 5.47002 41.6302 5.47225ZM11.1302 10.5556C11.1302 10.1062 11.3087 9.6752 11.6265 9.35743C11.9443 9.03966 12.3753 8.86114 12.8247 8.86114H18.6536V7.69197C18.6536 7.17684 18.755 6.66676 18.9522 6.19084C19.1493 5.71493 19.4382 5.2825 19.8025 4.91825C20.1667 4.554 20.5992 4.26506 21.0751 4.06793C21.551 3.87079 22.0611 3.76933 22.5762 3.76933C23.0913 3.76933 23.6014 3.87079 24.0773 4.06793C24.5532 4.26506 24.9857 4.554 25.3499 4.91825C25.7142 5.2825 26.0031 5.71493 26.2002 6.19084C26.3974 6.66676 26.4988 7.17684 26.4988 7.69197V8.86114H32.3277C32.7771 8.86114 33.2081 9.03966 33.5259 9.35743C33.8436 9.6752 34.0222 10.1062 34.0222 10.5556V13.9445H11.1641L11.1302 10.5556ZM34.3611 44.4445H10.6388V41.0556H34.3611V44.4445ZM34.3611 37.6667H10.6388V34.2778H34.3611V37.6667ZM34.3611 30.8889H10.6388V27.5H34.3611V30.8889ZM34.3611 24.1111H10.6388V20.7222H34.3611V24.1111Z" fill="white"/>
</svg>
