<svg width="49" height="49" viewBox="0 0 49 49" fill="none" xmlns="http://www.w3.org/2000/svg">
<path d="M4.08333 49C4.08333 49 0 49 0 44.9167C0 40.8333 4.08333 28.5833 24.5 28.5833C44.9167 28.5833 49 40.8333 49 44.9167C49 49 44.9167 49 44.9167 49H4.08333ZM24.5 24.5C27.7489 24.5 30.8647 23.2094 33.1621 20.9121C35.4594 18.6147 36.75 15.4989 36.75 12.25C36.75 9.0011 35.4594 5.88526 33.1621 3.58794C30.8647 1.29062 27.7489 0 24.5 0C21.2511 0 18.1353 1.29062 15.8379 3.58794C13.5406 5.88526 12.25 9.0011 12.25 12.25C12.25 15.4989 13.5406 18.6147 15.8379 20.9121C18.1353 23.2094 21.2511 24.5 24.5 24.5Z" fill="white"/>
</svg>
